<?xml version="1.0" encoding="UTF-8"?>
<!DOCTYPE svg PUBLIC "-//W3C//DTD SVG 1.1//EN" "http://www.w3.org/Graphics/SVG/1.1/DTD/svg11.dtd">
<!-- Creator: CorelDRAW (Версия для OEM) -->
<svg xmlns="http://www.w3.org/2000/svg" xml:space="preserve" width="178.847mm" height="48.6422mm" version="1.1" style="shape-rendering:geometricPrecision; text-rendering:geometricPrecision; image-rendering:optimizeQuality; fill-rule:evenodd; clip-rule:evenodd"
viewBox="0 0 17931.2 4876.85"
 xmlns:xlink="http://www.w3.org/1999/xlink"
 xmlns:xodm="http://www.corel.com/coreldraw/odm/2003">
 <defs>
  <style type="text/css">
   <![CDATA[
    .fil1 {fill:#1D65AD}
    .fil0 {fill:#21201F;fill-rule:nonzero}
   ]]>
  </style>
 </defs>
 <g id="Слой_x0020_1">
  <metadata id="CorelCorpID_0Corel-Layer"/>
  <path class="fil0" d="M7978.16 2132.02c-19.77,170.78 -79.55,321.33 -179.31,452.12 -99.78,130.78 -231.46,232.35 -395.05,304.27 -163.59,71.91 -348.76,107.86 -555.5,107.86 -229.2,0 -431,-44.04 -605.83,-131.68 -174.82,-87.64 -310.55,-210.79 -406.73,-369.89 -96.18,-159.09 -144.26,-342.46 -144.26,-550.1 0,-207.64 48.08,-391 144.26,-550.11 96.18,-159.09 231.91,-282.69 406.73,-370.33 174.83,-87.64 376.63,-131.23 605.83,-131.23 206.74,0 391.91,35.95 555.5,107.86 163.59,71.92 295.27,173.04 395.05,303.82 99.77,130.79 159.54,281.79 179.31,452.57l-459.77 0c-18.87,-95.28 -57.52,-177.97 -116.4,-247.63 -58.87,-69.66 -135.72,-123.15 -230.1,-160.45 -94.38,-37.31 -202.7,-55.73 -324.94,-55.73 -141.13,0 -263.36,26.52 -367.18,79.56 -103.82,53.03 -183.83,128.53 -240,226.51 -56.18,97.98 -84.49,213.03 -84.49,345.16 0,132.13 28.31,247.19 84.49,345.16 56.18,97.97 136.18,173.48 240,226.51 103.82,53.04 226.06,79.55 367.18,79.55 185.17,0 336.62,-40.44 453.92,-121.34 117.31,-80.89 189.66,-195.05 217.52,-342.46l459.77 0zm1027.4 494.81c-173.49,0 -324.94,-30.55 -454.38,-91.68 -129.44,-61.13 -229.21,-146.96 -299.32,-257.53 -70.12,-110.56 -105.17,-238.64 -105.17,-384.26 0,-145.62 35.05,-273.71 105.17,-384.27 70.1,-110.56 169.88,-196.4 299.32,-257.08 129.44,-60.67 280.89,-90.79 454.38,-90.79l524.48 0 0 -285.83 457.06 0 0 285.83 524.49 0c173.48,0 324.93,30.12 454.37,90.79 129.45,60.68 229.21,146.52 299.33,257.08 70.1,110.56 105.16,238.65 105.16,384.27 0,145.62 -35.06,273.7 -105.16,384.26 -70.11,110.57 -169.88,196.4 -299.33,257.53 -129.44,61.13 -280.89,91.68 -454.37,91.68l-524.49 0 0 386.96 -457.06 0 0 -386.96 -524.48 0zm-396.4 -733.46c0,75.5 17.07,140.66 50.78,195.95 33.71,55.28 81.79,97.97 144.71,127.64 62.91,29.66 137.08,44.5 222.47,44.5l502.91 0 0 -734.82 -502.91 0c-85.39,0 -159.55,14.84 -222.47,44.5 -62.92,29.67 -111.01,71.91 -144.71,127.19 -33.71,55.28 -50.78,120.45 -50.78,195.06zm1878.16 368.08c86.29,0 161.35,-14.84 224.72,-44.5 63.36,-29.67 111.9,-72.36 145.61,-127.64 33.71,-55.28 50.34,-120.45 50.34,-195.95 0,-74.6 -16.63,-139.77 -50.34,-195.06 -33.71,-55.28 -82.24,-97.52 -145.61,-127.19 -63.37,-29.66 -138.43,-44.5 -224.72,-44.5l-500.22 0 0 734.82 500.22 0zm2823.31 -141.58l-1167.61 0 -72.81 455.72 1324.02 0 0 380.21 -1821.54 0 157.75 -1011.21 -157.75 -1011.22 1808.04 0 0 380.22 -1310.52 0 72.81 455.72 1167.61 0 0 350.55zm1534.34 -1186.49c158.2,0 296.18,27.86 413.47,83.6 117.3,55.73 207.19,133.93 270.11,235.05 62.92,101.13 94.38,217.97 94.38,350.11 0,132.13 -31.46,248.53 -94.38,349.2 -62.92,100.68 -153.26,178.87 -271,234.61 -117.76,55.73 -255.28,83.59 -412.58,83.59l-645.83 0 0 686.28 -457.06 0 0 -2022.43 1102.9 0zm-24.27 958.63c106.06,0 189.21,-25.62 248.98,-76.85 59.77,-51.23 89.44,-122.25 89.44,-213.03 0,-90.79 -29.67,-162.24 -89.44,-213.92 -59.77,-51.68 -142.92,-77.3 -248.98,-77.3l-621.56 0 0 581.11 621.56 0zm3110.5 1063.8l-488.08 0 -191.46 -426.05 -1121.77 0 -191.47 426.05 -488.07 0 945.15 -2022.43 590.55 0 945.15 2022.43zm-846.72 -798.18l-393.7 -872.34 -392.36 872.34 786.06 0z"/>
  <path class="fil0" d="M5853.32 3971.14c43.99,0 78.63,-11.55 103.38,-34.09 25.3,-22.55 37.94,-52.79 37.94,-89.63 0,-36.85 -12.64,-67.08 -37.94,-89.63 -25.3,-23.09 -59.94,-34.63 -103.38,-34.63l-102.27 0 0 -81.38 211.15 0 0 -55.54 -271.62 0 0 384.91 162.75 0zm-102.27 -192.45l96.78 0c53.33,0 85.22,25.3 85.22,68.73 0,43.44 -30.79,68.19 -85.22,68.19l-96.78 0 0 -136.91zm366.76 199.6c45.64,0 82.47,-29.7 110.52,-89.63l141.87 -302.42 -64.89 0 -94.57 208.4 -113.82 -208.4 -68.18 0 150.66 272.74c-12.1,25.3 -23.09,42.34 -33.54,50.59 -10.45,8.24 -23.1,12.09 -38.49,12.09 -15.95,0 -30.24,-3.3 -43.99,-9.34l0 57.19c12.65,6.05 30.79,8.79 54.44,8.79zm331.57 -7.15l117.12 -160 116.56 160 72.04 0 -152.87 -209.49 128.66 -175.41 -70.37 0 -92.93 127.57 -92.93 -127.57 -71.48 0 128.12 176.51 -152.31 208.4 70.38 0zm422.84 0l0 -329.36 208.95 0 0 -55.54 -269.43 0 0 384.91 60.48 0zm228.19 0l41.25 -95.68 182.55 0 41.79 95.68 64.88 0 -168.26 -387.1 -58.28 0 -168.26 387.1 64.33 0zm132.52 -310.66l70.38 161.65 -140.76 0 70.38 -161.65zm215.55 309.56c5.49,1.64 13.19,2.75 23.64,2.75 47.83,0 79.18,-19.24 97.32,-63.22 18.15,-44.55 25.3,-98.99 26.95,-185.31l1.64 -82.47 137.47 0 0 329.36 60.48 0 0 -384.91 -256.23 0 -1.64 131.97c-1.64,70.38 -4.94,113.27 -15.4,148.46 -9.34,35.19 -26.94,50.58 -53.88,50.58 -8.25,0 -14.85,-0.54 -20.34,-2.2l0 54.98zm413.48 -328.26l127.03 0 0 329.36 60.48 0 0 -329.36 127.57 0 0 -55.54 -315.08 0 0 55.54zm662.03 329.36l0 -55.53 -220.49 0 0 -122.07 173.76 0 0 -55.54 -173.76 0 0 -96.22 213.34 0 0 -55.54 -273.83 0 0 384.91 280.98 0zm131.97 0l0 -158.91 105.02 0c40.14,0 71.48,-10.45 94.02,-31.89 23.09,-21.45 34.64,-48.94 34.64,-82.48 0,-32.99 -11.55,-59.93 -34.64,-80.28 -22.55,-20.89 -53.88,-31.34 -94.02,-31.34l-165.51 0 0 384.91 60.49 0zm0 -329.36l100.07 0c45.64,0 72.59,20.34 72.59,57.18 0,36.85 -26.95,57.74 -72.59,57.74l-100.07 0 0 -114.92zm492.68 336.51c43.43,0 80.83,-10.45 112.72,-30.79l0 -61.04c-29.7,23.64 -66.54,35.19 -109.97,35.19 -41.24,0 -75.34,-13.19 -102.83,-40.13 -26.94,-26.95 -40.69,-61.59 -40.69,-102.83 0,-41.25 13.19,-75.34 40.13,-102.27 26.95,-26.95 61.04,-40.69 101.17,-40.69 37.94,0 72.59,9.9 103.93,30.24l0 -61.04c-30.24,-17.04 -64.89,-25.85 -104.47,-25.85 -58.29,0 -106.68,18.7 -145.17,56.65 -38.49,37.39 -57.74,85.22 -57.74,142.96 0,57.73 19.25,105.57 57.74,143.51 39.04,37.39 87.43,56.09 145.17,56.09zm247.43 -7.15l0 -184.75 181.46 184.75 82.47 0 -206.75 -208.95 178.15 -175.96 -77.52 0 -157.82 157.27 0 -157.27 -60.48 0 0 384.91 60.48 0zm366.21 0l212.79 -283.72 0 283.72 60.49 0 0 -384.91 -52.79 0 -211.7 282.63 0 -282.63 -60.48 0 0 384.91 51.68 0zm649.93 0l0 -55.53 -220.5 0 0 -122.07 173.76 0 0 -55.54 -173.76 0 0 -96.22 213.35 0 0 -55.54 -273.83 0 0 384.91 280.98 0zm266.13 0l212.8 -283.72 0 283.72 60.48 0 0 -384.91 -52.79 0 -211.69 282.63 0 -282.63 -60.49 0 0 384.91 51.68 0zm5166.48 7.15c45.64,0 82.47,-29.7 110.52,-89.63l141.87 -302.42 -64.88 0 -94.59 208.4 -113.81 -208.4 -68.19 0 150.67 272.74c-12.1,25.3 -23.1,42.34 -33.55,50.59 -10.45,8.24 -23.1,12.09 -38.49,12.09 -15.94,0 -30.24,-3.3 -43.98,-9.34l0 57.19c12.64,6.05 30.79,8.79 54.43,8.79zm473.98 0c43.44,0 80.83,-10.45 112.72,-30.79l0 -61.04c-29.7,23.64 -66.53,35.19 -109.97,35.19 -41.24,0 -75.33,-13.19 -102.82,-40.13 -26.94,-26.95 -40.7,-61.59 -40.7,-102.83 0,-41.25 13.19,-75.34 40.14,-102.27 26.94,-26.95 61.03,-40.69 101.17,-40.69 37.94,0 72.58,9.9 103.93,30.24l0 -61.04c-30.25,-17.04 -64.89,-25.85 -104.48,-25.85 -58.28,0 -106.67,18.7 -145.17,56.65 -38.49,37.39 -57.73,85.22 -57.73,142.96 0,57.73 19.24,105.57 57.73,143.51 39.04,37.39 87.44,56.09 145.17,56.09zm144.61 -8.25c5.49,1.64 13.19,2.75 23.64,2.75 47.84,0 79.19,-19.24 97.33,-63.22 18.14,-44.55 25.29,-98.99 26.94,-185.31l1.64 -82.47 137.47 0 0 329.36 60.49 0 0 -384.91 -256.23 0 -1.65 131.97c-1.64,70.38 -4.94,113.27 -15.39,148.46 -9.34,35.19 -26.94,50.58 -53.89,50.58 -8.24,0 -14.85,-0.54 -20.34,-2.2l0 54.98zm495.42 8.25c45.64,0 82.47,-29.7 110.52,-89.63l141.87 -302.42 -64.88 0 -94.59 208.4 -113.81 -208.4 -68.19 0 150.67 272.74c-12.1,25.3 -23.1,42.34 -33.55,50.59 -10.45,8.24 -23.1,12.09 -38.49,12.09 -15.94,0 -30.24,-3.3 -43.99,-9.34l0 57.19c12.65,6.05 30.8,8.79 54.44,8.79zm370.6 -7.15l0 -329.36 208.95 0 0 -55.54 -269.43 0 0 384.91 60.48 0zm328.27 0l212.79 -283.72 0 283.72 60.49 0 0 -384.91 -52.79 0 -211.7 282.63 0 -282.63 -60.48 0 0 384.91 51.68 0zm-6157.32 -392.06c-47.84,0 -88.53,15.95 -122.08,47.84 -33.54,31.89 -53.88,72.58 -59.94,121.51l-67.64 0 0 -162.21 -60.48 0 0 384.91 60.48 0 0 -167.15 67.08 0c5.5,50.58 25.3,92.37 58.84,125.36 33.54,32.44 74.77,48.94 123.72,48.94 52.24,0 96.22,-19.24 130.86,-57.74 34.65,-38.49 52.25,-85.77 52.25,-141.86 0,-56.1 -17.6,-103.38 -52.25,-141.87 -34.64,-38.49 -78.62,-57.74 -130.86,-57.74zm0 342.57c-35.19,0 -64.34,-13.19 -87.44,-39.04 -22.54,-26.39 -34.09,-61.03 -34.09,-103.92 0,-42.89 11.55,-77.53 34.09,-103.38 23.1,-26.39 52.25,-39.58 87.44,-39.58 34.64,0 63.78,13.19 86.32,39.58 23.09,25.85 34.64,60.49 34.64,103.38 0,42.89 -11.55,77.53 -34.64,103.92 -22.55,25.85 -51.68,39.04 -86.32,39.04zm325.51 49.49l0 -158.91 105.02 0c40.14,0 71.49,-10.45 94.03,-31.89 23.09,-21.45 34.64,-48.94 34.64,-82.48 0,-32.99 -11.55,-59.93 -34.64,-80.28 -22.55,-20.89 -53.89,-31.34 -94.03,-31.34l-165.51 0 0 384.91 60.49 0zm0 -329.36l100.07 0c45.65,0 72.59,20.34 72.59,57.18 0,36.85 -26.94,57.74 -72.59,57.74l-100.07 0 0 -114.92zm355.21 329.36l212.8 -283.72 0 283.72 60.48 0 0 -384.91 -52.79 0 -211.69 282.63 0 -282.63 -60.49 0 0 384.91 51.68 0zm386 82.47l0 -82.47 291.42 0 0 82.47 57.19 0 0 -138.01 -55.53 0 0 -329.37 -254.59 0 0 53.34c0,70.93 -4.94,127.57 -14.3,168.81 -9.34,41.25 -24.19,76.98 -44.54,107.23l-36.84 0 0 138.01 57.18 0zm45.64 -138.01c19.25,-31.34 32.44,-68.74 40.14,-112.18 7.7,-43.43 11.55,-97.32 11.55,-161.65l135.26 0 0 273.83 -186.95 0zm419.55 55.53l212.79 -283.72 0 283.72 60.49 0 0 -384.91 -52.79 0 -211.7 282.63 0 -282.63 -60.49 0 0 384.91 51.69 0zm653.23 0l0 -384.91 -60.49 0 0 164.97c-26.95,12.64 -56.64,19.24 -89.63,19.24 -59.93,0 -87.43,-20.34 -87.43,-77.53l0 -106.68 -60.48 0 0 118.77c0,81.39 46.18,122.08 138.56,122.08 34.64,0 67.64,-5.49 98.98,-17.04l0 161.11 60.49 0zm376.65 0l0 -55.53 -220.49 0 0 -122.07 173.76 0 0 -55.54 -173.76 0 0 -96.22 213.34 0 0 -55.54 -273.83 0 0 384.91 280.98 0zm252.39 7.15c43.43,0 80.83,-10.45 112.72,-30.79l0 -61.04c-29.7,23.64 -66.54,35.19 -109.97,35.19 -41.25,0 -75.34,-13.19 -102.83,-40.13 -26.94,-26.95 -40.69,-61.59 -40.69,-102.83 0,-41.25 13.19,-75.34 40.13,-102.27 26.94,-26.95 61.04,-40.69 101.17,-40.69 37.94,0 72.59,9.9 103.93,30.24l0 -61.04c-30.25,-17.04 -64.89,-25.85 -104.47,-25.85 -58.29,0 -106.68,18.7 -145.17,56.65 -38.49,37.39 -57.74,85.22 -57.74,142.96 0,57.73 19.25,105.57 57.74,143.51 39.03,37.39 87.43,56.09 145.17,56.09zm247.43 -7.15l0 -184.75 181.46 184.75 82.47 0 -206.75 -208.95 178.15 -175.96 -77.53 0 -157.81 157.27 0 -157.27 -60.49 0 0 384.91 60.49 0zm366.21 0l212.79 -283.72 0 283.72 60.49 0 0 -384.91 -52.79 0 -211.7 282.63 0 -282.63 -60.48 0 0 384.91 51.68 0zm649.93 0l0 -55.53 -220.5 0 0 -122.07 173.76 0 0 -55.54 -173.76 0 0 -96.22 213.35 0 0 -55.54 -273.83 0 0 384.91 280.98 0z"/>
  <g>
   <path class="fil1" d="M912.48 3821.43c35.57,-18.83 91.44,-59.53 144.98,-86.69l236.63 -117.97c12.48,-5.37 18.95,-7.13 29.73,-12.83l61.52 122.87c63.57,122.14 131.59,226.95 218.07,335.09 6.41,8.02 12.31,16.67 18.18,24.37 7.99,10.49 12.93,14.38 21.71,25.58 53.26,68.04 139.11,152.46 201.67,214.38l126.57 105.11c-23.1,-0.52 -64.7,-13.14 -85.11,-18.91 -92.51,-26.09 -142.43,-41.02 -234.37,-77.68 -51.61,-20.57 -97.33,-40.9 -143.85,-64.17 -23.7,-11.85 -44.56,-21.77 -68.21,-35.81 -106.19,-62.99 -216.13,-123.95 -311.25,-208.81 -55.8,-49.8 -177.76,-147.02 -216.27,-204.52zm1910.08 614.62l243.12 -215.49 112.18 -124.22c7.56,-9.3 12.98,-16.31 20.88,-26.38 14.35,-18.27 26.8,-32.82 39.92,-49.91 48.19,-62.73 146.88,-208.56 182.81,-280.53 11.97,-23.95 20.99,-39.07 33.07,-61.49 8.86,-16.46 26.07,-48.1 29.92,-64.64 59.68,28.63 145.02,60.63 215.91,96.13l204.87 107.17c-26.95,40.24 -173.99,172.48 -218.09,207.42l-120.97 91.77c-21.19,15.88 -40.22,28.1 -62.57,41.45 -183.27,109.41 -297.51,171.53 -510.23,236.77 -25.01,7.67 -144.93,41.37 -170.81,41.95zm-330.96 42.55l-23.63 0 4.74 -132.35c1.2,-22.22 -0.04,-48.44 -0.13,-71.05 -0.12,-30.26 4.68,-38.59 5.02,-65.89 0.28,-22.04 -0.37,-44.48 -0.35,-66.54 0.04,-29.24 5.01,-36.63 5.05,-65.87 0.04,-23.69 -0.17,-47.48 -0.27,-71.18l8.87 -199.16c4.87,-43.4 -3.49,-97.05 1.38,-140.45l8.76 -274.91c73.19,0 147.69,11 213.16,18.52 153.71,17.64 331.86,55.53 476.53,100.26 27.8,8.6 62.9,21.38 90.41,27.79 -11.29,23.5 -19.52,47.67 -31.46,72.55 -66.76,139.1 -149.68,287.16 -244.7,407.75l-96.64 116.12c-51.12,64.08 -216.94,210.73 -284.34,259.37 -14.66,10.58 -121.83,85.06 -132.42,85.06zm-959.77 -955.03c20.38,-1.69 64.21,-18.39 88.19,-25.29l179.41 -47.52c89.77,-20.54 210.28,-37.4 301.06,-48.81l216.18 -15.49c0,97.35 4.75,179.31 4.72,274.21 -0.01,52.05 4.75,85.65 4.73,137.11 -0.02,23.26 -0.85,48.03 -0.16,71.07l4.72 132.39c0.04,29.24 5.01,36.63 5.05,65.87 0.03,23.71 -0.36,47.52 -0.33,71.23 0.04,29.25 5.01,36.64 5.05,65.87 0.04,23.38 -1,48.02 -0.31,71.23l9.6 203.15c-45.69,0 -93.1,-44.92 -152.29,-84.1l-90.01 -70.73c-56.06,-52.15 -120.36,-97.8 -168.32,-157.92 -16.93,-21.21 -45.61,-45.72 -80.46,-89.73 -114.89,-145.08 -224.09,-297.57 -295.75,-470.18 -9.35,-22.53 -30.41,-57.24 -31.1,-82.37zm936.14 -3125.15c47.98,0 114.41,59.93 152.65,88.47 82.1,61.27 171.13,144.94 241.04,217.56 99.16,103.03 250.07,311.58 312.41,434.61 7.29,14.37 11.07,23.79 19.26,37.47 17.56,29.33 23.94,48.09 38.92,79.28 14.38,29.97 65.54,136.42 67.83,163.84 -23.53,11.29 -59.55,19.7 -85.68,27.78 -30.08,9.3 -55.98,17.15 -88.29,25.19 -96.16,23.88 -182.95,42.42 -283.26,57.15 -124.34,18.25 -217.61,27 -341.79,27 0,-102.01 -5.25,-189.41 -4.66,-293.2l-4.78 -141.78c0.06,-52.8 -4.8,-91.08 -4.73,-146.56 0.11,-84.29 -9.88,-202.41 -9.42,-288.44 0.15,-30.05 -3.52,-42.65 -4.79,-66.13 -1.28,-23.92 0.23,-51.5 0.19,-75.84 -0.04,-29.89 -5.12,-39.3 -5,-70.64 0.11,-25.26 0.12,-50.5 0.12,-75.76zm-151.29 1158.34c-161.74,-13.46 -263.67,-24.21 -418.05,-54.75 -66.88,-13.23 -127.86,-28.25 -190.88,-45.51l-185.36 -55.76c1.25,-56.11 166.87,-358 207.3,-412.07l280.86 -343.22c62.45,-62.44 115.1,-103.06 182.08,-158.33l65.39 -48.08c45,-31.09 49.85,-40.62 91.76,-40.62 0,50.76 -4.83,87.85 -4.61,141.95 0.12,31.34 -4.96,40.77 -5,70.64 -0.03,24.93 1.05,51.2 0.32,75.97 -0.75,25.14 -5.12,35.58 -4.95,65.97l-9.2 364.3c-0.34,27.75 -5.16,38.84 -4.97,70.66l-4.66 368.85zm-307.33 -1115.79l-133.52 107.61c-186.8,166.02 -385.9,413.4 -496.86,637.83l-64.63 133.95 -55.37 -24.99c-92.83,-40.09 -236,-109.35 -322.65,-159.6 -12.75,-7.39 -37.56,-24.24 -52.22,-28.15 7.45,-11.13 15.05,-17.24 23.63,-28.37 32.3,-41.95 101.23,-103.34 138.31,-140.64l87.59 -77.89c10.24,-8.95 20.11,-16.35 31.46,-25.27 62.14,-48.82 131.95,-100.3 199.73,-140.68 95.38,-56.82 190.65,-107.29 298.71,-150.44 51.64,-20.62 104.69,-42.03 163.41,-58.79 39.74,-11.35 148.57,-43.79 182.39,-44.55zm0 0l9.22 -5.43 -9.22 5.43zm751.74 -14.19c53.21,0 230.25,47.48 284.32,65.56 31.34,10.48 55.1,19.75 87.47,30.73 80.88,27.43 165.56,70.67 241.34,108.53 26.68,13.33 49.66,27.96 75.71,42.49 74.64,41.62 245.08,159.8 305.2,219.6 12.43,12.36 18.63,14.65 30.82,25.92l118.14 118.26c10.04,10.04 19.1,17.86 28.16,28.57 12.81,15.18 21.47,23.12 25.02,36.43l-214.3 126.12c-38.78,19.19 -72.73,40.76 -111.99,58.21 -25.24,11.22 -103.31,50.44 -122.87,52.06l-66.2 -137.1c-12.1,-24.37 -22.72,-43.27 -36.35,-67.67 -59.7,-106.81 -136.72,-214.03 -211.49,-308.58 -15.99,-20.22 -32.6,-36.17 -48,-56.01 -10.73,-13.81 -12.7,-15.66 -24.53,-27.48 -11.77,-11.75 -13.31,-16.71 -23.6,-28.4 -31.05,-35.25 -70.04,-69.92 -103.98,-104.05 -37.12,-37.34 -127.78,-111.8 -171.36,-140.66l-61.49 -42.54zm-2761.09 2042.45l0 189.12 4420.59 0c0,174.99 -104.3,506.97 -184.39,666.64l-99.29 189.12c-34.73,-18.39 -64.82,-37.44 -100.87,-55.15l-316.77 -156.01c-37.49,-17.54 -72.39,-28.67 -110.26,-45.77 -112.23,-50.67 -234.63,-86.49 -352.05,-120.74 -163.74,-47.76 -334.85,-83.38 -524.24,-104.57 -137.4,-15.38 -299.27,-19.69 -444.23,-18.78 -234.63,1.47 -466.52,43.72 -690.47,99.15 -82.05,20.3 -159.18,47.75 -238.2,73.85 -41.29,13.64 -73.15,28.29 -113.43,42.58 -128.95,45.76 -251.96,111.83 -371.73,176.71 -16.69,9.03 -34.15,18.94 -51.15,29.23l-349.67 241.32c-26.05,22.7 -88.72,73.81 -105.07,98.23 28.7,33.02 54.39,74.17 80.38,108.74 54.91,73.09 111.37,147.06 176.18,211.5l44.85 49.73c129.49,128.72 268.21,250.55 424.7,345.94 22.36,13.64 37.46,25.54 60.21,39.08l184.49 99.19c23.57,11.85 42.42,22.11 66.17,33.12 88.5,41.04 186.79,80.42 281.09,106.61 159.22,44.2 228.55,60.93 391.45,86.06 29.08,4.48 61.9,7.45 88.42,10.87 176.85,22.79 424.35,9.67 589.43,-13.1 127.79,-17.64 253.29,-47.13 374.35,-84.26 113.06,-34.67 220.7,-79.81 328.8,-129.81 84.16,-38.94 211.85,-115.02 288.06,-165.83 33.29,-22.19 60.81,-42.51 91.76,-64.26 58.55,-41.12 111.21,-91.66 167.44,-135.15l79.56 -71.73c27.06,-27.22 51.17,-50.7 78.1,-77.92 14.49,-14.65 19.98,-25.24 35.33,-40.31 69.78,-68.6 147.67,-172.66 201.17,-252.71 51.71,-77.41 101.73,-154.74 146,-236.95l73.82 -153.12c169.05,-392.58 211.4,-708.25 211.4,-1154.97l-2600.35 0c-614.83,0 -1214.9,4.73 -1829.7,4.73l13.92 -127.92c16.82,-118.64 38.37,-235.67 76.5,-349.01 26.93,-80.06 80.05,-230.05 122.55,-302.96l51.8 -94.76c29.3,15.5 55.98,33.98 86.65,50.45 154.7,83.03 310.28,160.33 473.94,225.78 136.64,54.65 278.66,104.12 422.81,139.82 113.14,28.03 230.48,54.75 349.02,71.76 378.03,54.21 750.58,38.54 1120.21,-39.81 177.36,-37.59 365.28,-97.82 529.06,-170.67 243.78,-108.43 253.03,-119.66 458.71,-241.01 35.61,-21.01 72.98,-46.42 105.51,-69.43l169.08 -133.51c23.86,-21.09 101.57,-88.14 114.61,-107.6 -32.9,-49.13 -72.99,-95.15 -108.68,-141.89 -18.56,-24.29 -37.13,-46.14 -56.11,-71.56 -71.53,-95.78 -154.75,-182.79 -240.53,-265.36 -75.03,-72.22 -227.68,-198.88 -315.29,-252.06l-119.34 -74.51c-28.51,-15.5 -54.53,-30.2 -81.75,-45.9 -159.67,-92.07 -372.11,-170.49 -546.74,-214.46 -424.3,-106.81 -916.51,-103.44 -1329.9,35.63 -30.07,10.11 -59.68,19.96 -92.22,30.71 -231.37,76.4 -541.53,250.68 -725.08,414.34 -12.09,10.78 -21.42,17.17 -33.14,28.33 -13.48,12.85 -21.71,17.1 -35.43,30.75 -13.02,12.95 -20.33,15.85 -33.22,28.25l-96.82 97.01c-105.95,105.95 -199.98,226.02 -282.09,351.46l-49.86 77.79c-46.51,80.94 -93.36,160.5 -129.85,248.38 -13.09,31.55 -25.42,56.25 -38.53,89.13 -124.65,312.65 -181.68,616.77 -181.68,962.46l0 0z"/>
  </g>
 </g>
</svg>
